<svg width="22" height="22" viewBox="0 0 22 22" fill="none" xmlns="http://www.w3.org/2000/svg">
<path d="M19.1195 2.89742C18.6504 2.35928 18.0933 1.9324 17.4803 1.64115C16.8672 1.3499 16.2101 1.2 15.5464 1.2C14.8828 1.2 14.2257 1.3499 13.6126 1.64115C12.9995 1.9324 12.4425 2.35928 11.9734 2.89742L10.9997 4.01371L10.0261 2.89742C9.07848 1.81094 7.79321 1.20056 6.45306 1.20056C5.1129 1.20056 3.82764 1.81094 2.88 2.89742C1.93237 3.9839 1.39999 5.45748 1.39999 6.99399C1.39999 8.5305 1.93237 10.0041 2.88 11.0906L3.85364 12.2069L10.9997 20.4L18.1459 12.2069L19.1195 11.0906C19.5889 10.5527 19.9612 9.91405 20.2152 9.21115C20.4692 8.50824 20.6 7.75484 20.6 6.99399C20.6 6.23313 20.4692 5.47974 20.2152 4.77683C19.9612 4.07393 19.5889 3.4353 19.1195 2.89742Z" stroke="#152C5B" stroke-width="2" stroke-linecap="round" stroke-linejoin="round"/>
</svg>
