<svg width="14" height="14" viewBox="0 0 14 14" fill="none" xmlns="http://www.w3.org/2000/svg">
<path d="M13.9801 5.29054C13.9341 5.14308 13.8134 5.03775 13.6669 5.01367L9.29924 4.36363L7.33381 0.225625C7.26772 0.0871904 7.13267 -8.39233e-05 6.98613 -8.39233e-05C6.83958 -8.39233e-05 6.70453 0.0871904 6.63844 0.228635L4.69888 4.37868L0.331262 5.05881C0.184717 5.08289 0.0640329 5.18822 0.018058 5.33568C-0.0279169 5.48315 0.0123111 5.64566 0.118628 5.75099L3.28802 8.9681L2.5553 13.5244C2.52944 13.6779 2.58978 13.8314 2.71046 13.9217C2.77655 13.9728 2.85701 13.9999 2.93746 13.9999C3.00068 13.9999 3.06102 13.9849 3.11849 13.9518L7.01774 11.788L10.9285 13.9277C10.9859 13.9578 11.0463 13.9728 11.1066 13.9728C11.3193 13.9728 11.4945 13.7893 11.4945 13.5666C11.4945 13.5334 11.4917 13.5034 11.483 13.4733L10.7273 8.94403L13.8766 5.70886C13.9887 5.60052 14.026 5.43801 13.9801 5.29054ZM10.0435 8.51367C9.95151 8.60697 9.91128 8.74239 9.93427 8.87481L10.5923 12.8262L7.19589 10.9694C7.08383 10.9062 6.94877 10.9092 6.83384 10.9694L3.44893 12.8473L4.08396 8.88986C4.10408 8.75744 4.06385 8.62502 3.9719 8.53173L1.2249 5.73895L5.01495 5.1491C5.14139 5.12803 5.25058 5.04678 5.30517 4.9264L6.989 1.32408L8.69582 4.91737C8.75329 5.03775 8.86248 5.119 8.98891 5.14007L12.7818 5.70585L10.0435 8.51367Z" fill="#FFCF4A"/>
<path d="M10.0435 8.51367C9.95151 8.60697 9.91128 8.74239 9.93427 8.87481L10.5923 12.8262L7.19589 10.9694C7.08383 10.9062 6.94877 10.9092 6.83384 10.9694L3.44893 12.8473L4.08396 8.88986C4.10408 8.75744 4.06385 8.62502 3.9719 8.53173L1.2249 5.73895L5.01495 5.1491C5.14139 5.12803 5.25058 5.04678 5.30517 4.9264L6.989 1.32408L8.69582 4.91737C8.75329 5.03775 8.86248 5.119 8.98891 5.14007L12.7818 5.70585L10.0435 8.51367Z" fill="#FFCF4A"/>
</svg>
